<svg xmlns="http://www.w3.org/2000/svg" xmlns:xlink="http://www.w3.org/1999/xlink" fill="none" viewBox="0 0 62 62" class="flower-mob" aria-hidden="true">
  <path fill="url(#home-animate-anything-flower-mobile-a)" fill-rule="evenodd" d="M18.256 30.33c-1.001.211-2.038.322-3.1.322C6.786 30.651 0 23.79 0 15.325S6.785 0 15.155 0s15.156 6.862 15.156 15.326c0 .709-.048 1.406-.14 2.09h1.657c-.092-.684-.14-1.381-.14-2.09C31.689 6.862 38.475 0 46.845 0 55.214 0 62 6.862 62 15.326S55.214 30.65 46.844 30.65c-.94 0-1.862-.086-2.755-.252V31.6a15.083 15.083 0 0 1 2.755-.252C55.214 31.349 62 38.21 62 46.674 62 55.138 55.214 62 46.844 62c-8.37 0-15.155-6.862-15.155-15.326 0-1.074.11-2.123.317-3.135h-1.945c.164.904.25 1.835.25 2.787 0 8.464-6.785 15.326-15.155 15.326S0 54.79 0 46.326 6.785 31 15.155 31c1.063 0 2.1.11 3.1.321v-.99Z" clip-rule="evenodd"/>
  <path fill="url(#home-animate-anything-flower-mobile-b)" fill-opacity=".6" fill-rule="evenodd" d="M18.256 30.33c-1.001.211-2.038.322-3.1.322C6.786 30.651 0 23.79 0 15.325S6.785 0 15.155 0s15.156 6.862 15.156 15.326c0 .709-.048 1.406-.14 2.09h1.657c-.092-.684-.14-1.381-.14-2.09C31.689 6.862 38.475 0 46.845 0 55.214 0 62 6.862 62 15.326S55.214 30.65 46.844 30.65c-.94 0-1.862-.086-2.755-.252V31.6a15.083 15.083 0 0 1 2.755-.252C55.214 31.349 62 38.21 62 46.674 62 55.138 55.214 62 46.844 62c-8.37 0-15.155-6.862-15.155-15.326 0-1.074.11-2.123.317-3.135h-1.945c.164.904.25 1.835.25 2.787 0 8.464-6.785 15.326-15.155 15.326S0 54.79 0 46.326 6.785 31 15.155 31c1.063 0 2.1.11 3.1.321v-.99Z" clip-rule="evenodd"/>
  <defs>
    <linearGradient id="home-animate-anything-flower-mobile-a" x1="50.449" x2=".172" y1="74.75" y2="20.03" gradientUnits="userSpaceOnUse">
      <stop offset=".144" stop-color="#FFE9FE"/>
      <stop offset="1" stop-color="#FF96F9"/>
    </linearGradient>
    <pattern id="home-animate-anything-flower-mobile-b" width="1.613" height="1.613" patternContentUnits="objectBoundingBox">
      <use xlink:href="#svg-noise" transform="scale(.00323)"/>
    </pattern>
  </defs>
</svg>