<svg xmlns="http://www.w3.org/2000/svg" xmlns:xlink="http://www.w3.org/1999/xlink" fill="none" width="23" height="23" viewBox="0 0 23 23" aria-hidden="true">
  <path fill="url(#paint0_radial_2146_58993)" fill-rule="evenodd" d="M7.959 10.053a4.368 4.368 0 0 1-.889-.17c-2.327-.7-3.64-3.174-2.933-5.527C4.845 2.002 7.305.662 9.632 1.36c2.327.7 3.64 3.174 2.933 5.528-.06.197-.131.387-.214.57l.46.138c.032-.198.078-.396.137-.593.707-2.353 3.167-3.694 5.494-2.995 2.328.7 3.64 3.175 2.933 5.528-.707 2.353-3.167 3.694-5.494 2.995a4.377 4.377 0 0 1-.745-.3l-.1.333c.261.029.525.082.786.16 2.328.7 3.64 3.175 2.933 5.528-.707 2.353-3.167 3.694-5.494 2.995-2.327-.7-3.64-3.175-2.933-5.528a4.51 4.51 0 0 1 .35-.845l-.54-.163c-.03.265-.085.531-.164.796-.708 2.353-3.168 3.694-5.495 2.994-2.327-.7-3.64-3.174-2.933-5.527.708-2.354 3.168-3.694 5.495-2.995.295.089.574.206.835.349l.083-.276Z" clip-rule="evenodd"/>
  <path fill="url(#pattern-home-hero-btn-circles-0)" fill-opacity=".6" fill-rule="evenodd" d="M7.959 10.053a4.368 4.368 0 0 1-.889-.17c-2.327-.7-3.64-3.174-2.933-5.527C4.845 2.002 7.305.662 9.632 1.36c2.327.7 3.64 3.174 2.933 5.528-.06.197-.131.387-.214.57l.46.138c.032-.198.078-.396.137-.593.707-2.353 3.167-3.694 5.494-2.995 2.328.7 3.64 3.175 2.933 5.528-.707 2.353-3.167 3.694-5.494 2.995a4.377 4.377 0 0 1-.745-.3l-.1.333c.261.029.525.082.786.16 2.328.7 3.64 3.175 2.933 5.528-.707 2.353-3.167 3.694-5.494 2.995-2.327-.7-3.64-3.175-2.933-5.528a4.51 4.51 0 0 1 .35-.845l-.54-.163c-.03.265-.085.531-.164.796-.708 2.353-3.168 3.694-5.495 2.994-2.327-.7-3.64-3.174-2.933-5.527.708-2.354 3.168-3.694 5.495-2.995.295.089.574.206.835.349l.083-.276Z" clip-rule="evenodd"/>
  <defs>
    <radialGradient id="paint0_radial_2146_58993" cx="0" cy="0" r="1" gradientTransform="rotate(-31.559 22.628 3.049) scale(17.064 11.3981)" gradientUnits="userSpaceOnUse">
      <stop stop-color="#FFD9B0"/>
      <stop offset=".807" stop-color="#FD9F3B"/>
      <stop offset="1" stop-color="#FF8709"/>
    </radialGradient>
    <pattern id="pattern-home-hero-btn-circles-0" width="5.556" height="5.556" patternContentUnits="objectBoundingBox">
      <use xlink:href="#svg-noise" transform="scale(.01111)"/>
    </pattern>
  </defs>
</svg>