<svg viewBox="0 0 156 156" fill="none" xmlns="http://www.w3.org/2000/svg" xmlns:xlink="http://www.w3.org/1999/xlink" aria-hidden="true" style="translate: none; rotate: none; scale: none; transform: translate(0px, 0px);">
<path fill-rule="evenodd" clip-rule="evenodd" d="M45.9341 76.316C43.4159 76.8454 40.8068 77.1236 38.1333 77.1236C17.0729 77.1236 0 59.8589 0 38.5618C0 17.2647 17.0729 0 38.1333 0C59.1938 0 76.2666 17.2647 76.2666 38.5618C76.2666 40.3457 76.1469 42.1013 75.915 43.8209H80.0849C79.853 42.1013 79.7332 40.3457 79.7332 38.5618C79.7332 17.2647 96.8061 0 117.867 0C138.927 0 156 17.2647 156 38.5618C156 59.8589 138.927 77.1236 117.867 77.1236C115.499 77.1236 113.182 76.9054 110.934 76.4879V79.5128C113.182 79.0953 115.499 78.8771 117.867 78.8771C138.927 78.8771 156 96.1418 156 117.439C156 138.736 138.927 156.001 117.867 156.001C96.8064 156.001 79.7335 138.736 79.7335 117.439C79.7335 114.736 80.0086 112.097 80.5319 109.551H75.6376C76.0508 111.825 76.2667 114.169 76.2667 116.564C76.2667 137.861 59.1938 155.126 38.1334 155.126C17.0729 155.126 6.30037e-05 137.861 6.30037e-05 116.564C6.30037e-05 95.2671 17.0729 78.0024 38.1334 78.0024C40.8068 78.0024 43.416 78.2806 45.9341 78.8099V76.316Z" fill="url(#paint0_radial_1336_100489)"/>
<path fill-opacity=".6" fill-rule="evenodd" clip-rule="evenodd" d="M45.9341 76.316C43.4159 76.8454 40.8068 77.1236 38.1333 77.1236C17.0729 77.1236 0 59.8589 0 38.5618C0 17.2647 17.0729 0 38.1333 0C59.1938 0 76.2666 17.2647 76.2666 38.5618C76.2666 40.3457 76.1469 42.1013 75.915 43.8209H80.0849C79.853 42.1013 79.7332 40.3457 79.7332 38.5618C79.7332 17.2647 96.8061 0 117.867 0C138.927 0 156 17.2647 156 38.5618C156 59.8589 138.927 77.1236 117.867 77.1236C115.499 77.1236 113.182 76.9054 110.934 76.4879V79.5128C113.182 79.0953 115.499 78.8771 117.867 78.8771C138.927 78.8771 156 96.1418 156 117.439C156 138.736 138.927 156.001 117.867 156.001C96.8064 156.001 79.7335 138.736 79.7335 117.439C79.7335 114.736 80.0086 112.097 80.5319 109.551H75.6376C76.0508 111.825 76.2667 114.169 76.2667 116.564C76.2667 137.861 59.1938 155.126 38.1334 155.126C17.0729 155.126 6.30037e-05 137.861 6.30037e-05 116.564C6.30037e-05 95.2671 17.0729 78.0024 38.1334 78.0024C40.8068 78.0024 43.416 78.2806 45.9341 78.8099V76.316Z" fill="url(#pattern-home-hero-circles-0)" style="mix-blend-mode:multiply"/>
<defs>
<pattern id="pattern-home-hero-circles-0" patternContentUnits="objectBoundingBox" width="0.641025" height="0.641023">
<use xlink:href="#svg-noise" transform="scale(0.00128205)"/>
</pattern>
<radialGradient id="paint0_radial_1336_100489" cx="0" cy="0" r="1" gradientUnits="userSpaceOnUse" gradientTransform="translate(48.0022 111.876) rotate(-90) scale(122.883 122.883)">
<stop stop-color="#E193FF"/>
<stop offset="0.6721" stop-color="#8E78DA"/>
<stop offset="0.7378" stop-color="#937DDB"/>
<stop offset="0.8164" stop-color="#A28BDD"/>
<stop offset="0.9014" stop-color="#BAA3E2"/>
<stop offset="0.9905" stop-color="#DBC3E7"/>
<stop offset="1" stop-color="#DFC7E8"/>
</radialGradient>
</defs>
</svg>